<svg width="188" height="188" viewBox="0 0 188 188" fill="none" xmlns="http://www.w3.org/2000/svg">
<circle cx="94" cy="94" r="94" fill="#EA8523"/>
<path d="M94.2535 157.645C95.6731 157.645 96.93 157.97 98.0243 158.621C99.1037 159.286 99.9466 160.233 100.553 161.46C101.144 162.702 101.44 164.166 101.44 165.852C101.44 167.523 101.144 168.98 100.553 170.222C99.9466 171.464 99.1037 172.418 98.0243 173.083C96.93 173.763 95.6657 174.103 94.2313 174.103C92.3385 174.103 90.845 173.623 89.7507 172.662C88.6417 171.715 87.9097 170.355 87.5548 168.58L90.0835 168.447C90.3053 169.556 90.7637 170.407 91.4587 170.998C92.1389 171.604 93.0631 171.907 94.2313 171.907C95.1777 171.907 96.0058 171.663 96.7156 171.176C97.4254 170.688 97.9799 169.985 98.3791 169.068C98.7636 168.166 98.9559 167.094 98.9559 165.852C98.9559 164.61 98.7636 163.538 98.3791 162.636C97.9799 161.734 97.4254 161.039 96.7156 160.551C96.0058 160.078 95.1851 159.841 94.2535 159.841C93.0114 159.841 92.0354 160.166 91.3256 160.817C90.6158 161.482 90.1648 162.421 89.9726 163.634L87.4439 163.501C87.7545 161.667 88.4938 160.233 89.662 159.198C90.8154 158.163 92.3459 157.645 94.2535 157.645Z" fill="#FFFDF6"/>
<path d="M55.3347 145.42C55.9927 145.899 56.3854 146.44 56.5129 147.044C56.6404 147.649 56.4564 148.292 55.961 148.974L48.1595 159.674L46.2574 158.292L53.9105 147.758C54.2234 147.327 54.1645 146.956 53.7338 146.643L52.9622 146.082L54.0965 144.521L55.3347 145.42Z" fill="#FFFDF6"/>
<path d="M22.3673 118.976L21.6407 116.74L32.8634 113.093L33.59 115.329L22.3673 118.976ZM18.5205 120.272L17.7597 117.931L19.9958 117.204L20.7566 119.546L18.5205 120.272Z" fill="#FFFDF6"/>
<path d="M20.5336 75.5923L21.219 73.4828L22.9414 73.9958C22.4137 73.4667 22.077 72.852 21.9314 72.1516C21.7858 71.4513 21.8363 70.7214 22.0831 69.962C22.4258 68.9072 22.9739 68.1057 23.7273 67.5576C24.4852 66.9953 25.3643 66.6824 26.3646 66.6186C27.3648 66.5549 28.4134 66.7013 29.5104 67.0577C30.5933 67.4096 31.5183 67.9123 32.2855 68.5658C33.0573 69.2053 33.5939 69.9704 33.8952 70.8613C34.1825 71.7476 34.1548 72.7182 33.8121 73.773C33.5745 74.5043 33.205 75.115 32.7037 75.6051C32.1883 76.0907 31.6084 76.392 30.964 76.5092L35.6471 78.0308L34.9206 80.2669L20.5336 75.5923ZM31.7411 73.5432C32.0336 72.6431 31.9175 71.828 31.3929 71.0978C30.8588 70.3489 29.9799 69.7758 28.7564 69.3782C27.5329 68.9807 26.492 68.9301 25.6338 69.2266C24.7661 69.5044 24.1861 70.0933 23.8936 70.9934C23.5966 71.9075 23.7011 72.7344 24.2071 73.4741C24.7036 74.1952 25.5917 74.7636 26.8715 75.1794C28.1513 75.5953 29.2109 75.6597 30.0505 75.3728C30.8805 75.0672 31.4441 74.4573 31.7411 73.5432Z" fill="#FFFDF6"/>
<path d="M55.7985 43.607C54.4826 44.5631 53.2468 45.0132 52.0911 44.9572C50.9387 44.8805 49.9671 44.2979 49.1761 43.2092C48.5851 42.3957 48.2664 41.5671 48.22 40.7234C48.177 39.8591 48.3976 38.7666 48.8821 37.4459C48.0396 37.2172 47.3499 36.9597 46.813 36.6735C46.288 36.3787 45.8343 35.968 45.4519 35.4417C44.7652 34.4966 44.5194 33.5419 44.7145 32.5777C44.9128 31.5928 45.5384 30.7179 46.5911 29.953C47.6319 29.1968 48.6263 28.8673 49.5743 28.9645C50.5136 29.0498 51.3005 29.5291 51.935 30.4024C52.4391 31.0963 52.6774 31.8645 52.6498 32.707C52.6342 33.5409 52.3635 34.6149 51.8378 35.9291L56.8387 37.3404C56.8423 36.5153 56.4487 35.5583 55.6577 34.4697L57.7082 33.2541C58.1971 33.9773 58.5609 34.7548 58.7997 35.5867C59.0505 36.4098 59.1469 37.1714 59.0889 37.8715L62.068 38.6133L59.8069 40.2561L58.6932 39.9685C58.5364 40.5577 58.2121 41.168 57.7204 41.7994C57.2407 42.4221 56.6 43.0247 55.7985 43.607ZM54.7312 41.723C55.7242 41.0015 56.2915 40.2604 56.4332 39.4994L50.9235 37.9915C50.6242 38.8122 50.4879 39.5052 50.5148 40.0706C50.5537 40.6273 50.7513 41.1508 51.1077 41.6413C51.5162 42.2036 52.0249 42.5012 52.6337 42.5341C53.2545 42.5583 53.9536 42.2879 54.7312 41.723ZM49.9202 35.403C50.2522 34.5769 50.4265 33.9111 50.443 33.4056C50.4715 32.8913 50.3337 32.4249 50.0295 32.0062C49.7513 31.6233 49.4247 31.4128 49.0497 31.3746C48.6779 31.3157 48.2946 31.4297 47.8998 31.7165C47.4691 32.0294 47.2151 32.3968 47.1377 32.8185C47.0636 33.2197 47.1743 33.6236 47.4698 34.0304C47.7045 34.3534 48.0066 34.6182 48.3761 34.825C48.737 35.0198 49.2517 35.2124 49.9202 35.403Z" fill="black"/>
<path d="M88.4778 15.2515H90.8733V22.7709L97.5055 15.2515H100.411L94.3779 22.1276L100.81 31H97.9934L92.7809 23.8134L90.8733 25.9427V31H88.4778V15.2515Z" fill="#FFFDF6"/>
<path d="M131.608 42.8612C130.698 42.2006 130.051 41.4193 129.664 40.5171C129.286 39.6029 129.186 38.6343 129.363 37.6112C129.539 36.5881 129.988 35.58 130.71 34.5871C131.431 33.5941 132.245 32.8512 133.152 32.3583C134.07 31.874 135.012 31.6719 135.978 31.7519C136.964 31.8286 137.905 32.1929 138.803 32.8448C139.676 33.4793 140.294 34.2389 140.656 35.1237C141.027 35.9966 141.114 36.9462 140.917 37.9726C140.74 38.9957 140.269 40.0337 139.505 41.0864L139.153 41.5709L132.298 36.5905C131.676 37.5465 131.413 38.4245 131.508 39.2246C131.612 40.0128 132.046 40.685 132.812 41.2413C133.362 41.6411 133.914 41.8501 134.467 41.8683C135.041 41.8833 135.571 41.7199 136.057 41.3783L137.94 42.9381C137.037 43.6528 136.013 44.0055 134.868 43.9963C133.735 43.9958 132.648 43.6174 131.608 42.8612ZM138.168 38.6621C138.72 37.8019 138.938 37.0103 138.824 36.2874C138.709 35.5644 138.311 34.9553 137.629 34.4598C136.947 33.9644 136.235 33.7756 135.491 33.8933C134.747 34.0111 134.031 34.4316 133.341 35.155L138.168 38.6621Z" fill="#FFFDF6"/>
<path d="M154.783 74.7384C154.436 73.6696 154.371 72.6567 154.588 71.6997C154.82 70.7382 155.308 69.8954 156.053 69.1716C156.797 68.4477 157.753 67.8962 158.92 67.5169C160.087 67.1376 161.183 67.015 162.206 67.149C163.233 67.2971 164.114 67.6873 164.848 68.3195C165.601 68.9612 166.149 69.8094 166.491 70.8642C166.825 71.8908 166.878 72.8686 166.651 73.7974C166.439 74.7217 165.951 75.541 165.188 76.2554C164.443 76.9792 163.452 77.5422 162.215 77.9443L161.645 78.1294L159.027 70.071C157.962 70.4791 157.233 71.0347 156.84 71.7378C156.46 72.4364 156.417 73.2357 156.709 74.1358C156.92 74.7827 157.243 75.2762 157.68 75.6162C158.136 75.9657 158.66 76.145 159.254 76.1542L159.861 78.5227C158.71 78.5701 157.674 78.2536 156.753 77.5732C155.837 76.9069 155.18 75.962 154.783 74.7384ZM162.558 75.1973C163.51 74.8257 164.153 74.3139 164.485 73.6617C164.817 73.0096 164.853 72.2827 164.593 71.481C164.332 70.6794 163.867 70.1077 163.196 69.7659C162.525 69.4241 161.698 69.343 160.715 69.5226L162.558 75.1973Z" fill="#FFFDF6"/>
<path d="M167.748 113.333L167.063 115.443L165.34 114.93C165.868 115.459 166.205 116.074 166.35 116.774C166.496 117.474 166.445 118.204 166.199 118.964C165.856 120.019 165.308 120.82 164.554 121.368C163.797 121.93 162.917 122.243 161.917 122.307C160.917 122.371 159.868 122.224 158.771 121.868C157.688 121.516 156.763 121.014 155.996 120.36C155.224 119.721 154.688 118.955 154.387 118.064C154.099 117.178 154.127 116.208 154.47 115.153C154.707 114.422 155.077 113.811 155.578 113.321C156.093 112.835 156.673 112.534 157.318 112.417L152.635 110.895L153.361 108.659L167.748 113.333ZM156.541 115.383C156.248 116.283 156.364 117.098 156.889 117.828C157.423 118.577 158.302 119.15 159.525 119.548C160.749 119.945 161.79 119.996 162.648 119.699C163.516 119.421 164.096 118.832 164.388 117.932C164.685 117.018 164.581 116.191 164.075 115.452C163.578 114.731 162.69 114.162 161.41 113.746C160.13 113.331 159.071 113.266 158.231 113.553C157.401 113.859 156.838 114.468 156.541 115.383Z" fill="#FFFDF6"/>
<path d="M133.595 151.448C134.277 150.953 135.07 150.824 135.974 151.063L136.434 151.168C136.808 151.28 137.116 151.339 137.359 151.346C137.61 151.364 137.843 151.295 138.058 151.139C138.645 150.713 138.512 149.914 137.66 148.742L139.257 147.581C139.97 148.562 140.328 149.508 140.332 150.419C140.333 151.351 139.974 152.078 139.256 152.599C138.814 152.921 138.39 153.092 137.984 153.112C137.567 153.141 137.094 153.082 136.567 152.935C136.134 152.793 135.788 152.706 135.528 152.676C135.265 152.666 135.014 152.748 134.775 152.921C134.177 153.356 134.303 154.16 135.155 155.332L133.576 156.479C132.863 155.498 132.501 154.546 132.488 153.623C132.484 152.712 132.853 151.987 133.595 151.448Z" fill="black"/>
<path fill-rule="evenodd" clip-rule="evenodd" d="M106.086 71.9618L74.3282 109.988L74.3282 109.988C73.931 110.463 73.6314 111.012 73.4464 111.604C73.2615 112.195 73.1948 112.817 73.2502 113.434C73.3057 114.051 73.4821 114.652 73.7695 115.201C74.0569 115.75 74.4496 116.237 74.9252 116.634C75.4007 117.031 75.9499 117.331 76.5413 117.516C77.1327 117.7 77.7547 117.767 78.3718 117.712C78.989 117.656 79.5892 117.48 80.1381 117.192C80.68 116.909 81.1615 116.523 81.5558 116.055L113.329 78.0109L113.329 78.011C113.727 77.5354 114.026 76.9863 114.211 76.3949C114.396 75.8035 114.463 75.1815 114.407 74.5644C114.352 73.9472 114.175 73.347 113.888 72.7981C113.601 72.2491 113.208 71.7621 112.732 71.3649C112.257 70.9677 111.708 70.6681 111.116 70.4832C110.525 70.2982 109.903 70.2315 109.286 70.2869C108.669 70.3424 108.068 70.5188 107.519 70.8062C106.97 71.0936 106.484 71.4863 106.086 71.9619L106.086 71.9618ZM102.465 68.9373L102.465 68.9372L70.5805 107.114L70.5821 107.115C69.8495 108.031 69.2935 109.075 68.9431 110.195C68.8647 110.446 68.7968 110.7 68.7397 110.956C68.5276 111.905 68.4634 112.884 68.5507 113.856C68.6616 115.091 69.0145 116.291 69.5892 117.389C70.164 118.487 70.9494 119.461 71.9006 120.255C72.8517 121.05 73.9501 121.649 75.1328 122.019C76.3156 122.389 77.5596 122.522 78.7939 122.411C79.7664 122.324 80.7178 122.086 81.6147 121.708C81.8561 121.607 82.0936 121.495 82.3265 121.373C83.3663 120.828 84.2949 120.095 85.0651 119.211L85.0666 119.212L85.1706 119.088L85.1928 119.061L85.1927 119.061L116.951 81.0355L116.951 81.0356C117.745 80.0845 118.345 78.9861 118.714 77.8034C118.793 77.5525 118.861 77.2988 118.918 77.0431C119.13 76.0933 119.194 75.1147 119.107 74.1423C118.996 72.908 118.643 71.7076 118.068 70.6097C117.494 69.5118 116.708 68.5378 115.757 67.7434C114.806 66.949 113.708 66.3498 112.525 65.9798C111.342 65.6099 110.098 65.4766 108.864 65.5874C107.891 65.6748 106.94 65.9124 106.043 66.2903C105.801 66.3921 105.564 66.504 105.331 66.626C104.233 67.2007 103.259 67.9861 102.465 68.9373Z" fill="#073740"/>
<path d="M107.626 117.129C107.076 116.844 106.587 116.454 106.188 115.98L98.3909 106.731L95.3197 110.409L102.707 119.172L102.709 119.17C103.483 120.051 104.415 120.78 105.457 121.319C105.824 121.509 106.202 121.674 106.588 121.814C107.362 122.094 108.171 122.271 108.995 122.342C110.229 122.447 111.473 122.308 112.654 121.932C113.835 121.557 114.931 120.953 115.878 120.154C116.826 119.355 117.606 118.377 118.176 117.277C118.746 116.176 119.093 114.974 119.198 113.74C119.268 112.916 119.23 112.089 119.085 111.279C119.013 110.874 118.914 110.474 118.789 110.08C118.433 108.962 117.873 107.92 117.136 107.008L117.137 107.006L107.605 95.6992L104.533 99.3766L113.403 109.897C113.802 110.371 114.105 110.919 114.292 111.51C114.48 112.1 114.549 112.722 114.497 113.339C114.444 113.957 114.271 114.558 113.986 115.108C113.701 115.658 113.31 116.147 112.837 116.546C112.363 116.946 111.815 117.248 111.225 117.436C110.634 117.623 110.012 117.693 109.395 117.64C108.778 117.588 108.177 117.414 107.626 117.129Z" fill="#FFFDF6"/>
<path d="M89.2668 81.2677L92.338 77.5903L85.0769 68.9773C84.2782 68.0298 83.3006 67.249 82.2 66.6793C81.8334 66.4895 81.4556 66.3244 81.069 66.1847C80.2951 65.9051 79.4862 65.7272 78.6627 65.6571C77.4279 65.5519 76.1845 65.691 75.0034 66.0664C73.8224 66.4418 72.7268 67.0461 71.7793 67.8449C70.8318 68.6437 70.051 69.6212 69.4813 70.7218C68.9116 71.8224 68.5642 73.0244 68.4591 74.2592C68.389 75.0826 68.4275 75.91 68.5722 76.7201C68.6445 77.1247 68.7434 77.525 68.8684 77.9184C69.2438 79.0995 69.8481 80.195 70.6469 81.1425L80.053 92.2998L83.1243 88.6224L74.2544 78.1012C73.855 77.6275 73.5528 77.0797 73.3652 76.4892C73.1775 75.8986 73.1079 75.2769 73.1605 74.6595C73.2131 74.0421 73.3867 73.4411 73.6716 72.8909C73.9564 72.3406 74.3469 71.8518 74.8206 71.4524C75.2944 71.053 75.8421 70.7508 76.4327 70.5632C77.0232 70.3755 77.6449 70.3059 78.2623 70.3585C78.8797 70.4111 79.4807 70.5847 80.031 70.8696C80.5812 71.1544 81.07 71.5449 81.4694 72.0186L89.2668 81.2677Z" fill="#FFFDF6"/>
</svg>
